<svg xmlns="http://www.w3.org/2000/svg" version="1.1" xmlns:xlink="http://www.w3.org/1999/xlink" xmlns:svgjs="http://svgjs.dev/svgjs" width="1000" height="623" viewBox="0 0 1000 623"><g transform="matrix(1,0,0,1,-0.6060606060606233,0.2522267206477409)"><svg viewBox="0 0 396 247" data-background-color="#ffffff" preserveAspectRatio="xMidYMid meet" height="623" width="1000" xmlns="http://www.w3.org/2000/svg" xmlns:xlink="http://www.w3.org/1999/xlink"><g id="tight-bounds" transform="matrix(1,0,0,1,0.2400000000000091,-0.09999999999999432)"><svg viewBox="0 0 395.52 247.2" height="247.2" width="395.52"><g><svg></svg></g><g><svg viewBox="0 0 395.52 247.2" height="247.2" width="395.52"><g transform="matrix(1,0,0,1,90.5274923076923,47.215199999999996)"><svg viewBox="0 0 214.46501538461538 152.7696" height="152.7696" width="214.46501538461538"><g><svg viewBox="0 0 214.46501538461538 152.7696" height="152.7696" width="214.46501538461538"><g><svg viewBox="0 0 214.46501538461538 152.7696" height="152.7696" width="214.46501538461538"><g><svg viewBox="0 0 214.46501538461538 152.7696" height="152.7696" width="214.46501538461538"><g id="textblocktransform"><svg viewBox="0 0 214.46501538461538 152.7696" height="152.7696" width="214.46501538461538" id="textblock"><g><svg viewBox="0 0 214.46501538461538 152.7696" height="152.7696" width="214.46501538461538"><g transform="matrix(1,0,0,1,0,0)"><svg width="214.46501538461538" viewBox="1.2300000190734863 -31.850000381469727 45.619998931884766 32.5" height="152.7696" data-palette-color="#ff4136"><path d="M6.23 0L1.23 0 12.13-31.85 18-31.85 28.58 0 23.58 0 21.1-7.6 8.8-7.6 6.23 0ZM14.98-26.13L10-11.25 19.93-11.25 14.98-26.13ZM30.37-1.48L30.37-1.48 30.37-6.3Q32.25-5.15 34.07-4.58 35.9-4 37.57-4L37.57-4Q39.97-4 41.03-5.41 42.1-6.83 42.1-9.53L42.1-9.53 42.1-31.85 46.85-31.85 46.85-9.53Q46.85-5.9 45.73-3.66 44.62-1.43 42.61-0.39 40.6 0.65 37.92 0.65L37.92 0.65Q35.82 0.65 33.95 0.05 32.07-0.55 30.37-1.48Z" opacity="1" transform="matrix(1,0,0,1,0,0)" fill="#ff4136" class="wordmark-text-0" data-fill-palette-color="primary" id="text-0"></path></svg></g></svg></g></svg></g></svg></g></svg></g></svg></g></svg></g><path d="M122.691 41.215L122.691 0 369.891 0 369.891 247.2 122.691 247.2 122.691 205.985 136.468 205.985 136.468 233.423 356.114 233.423 356.114 13.777 136.468 13.777 136.468 41.215Z" fill="#ff4136" stroke="transparent" data-fill-palette-color="primary"></path></svg></g><defs></defs></svg><rect width="395.52" height="247.2" fill="none" stroke="none" visibility="hidden"></rect></g></svg></g></svg>